# xmcd CD database file
#
# Track frame offsets:
#	183
#	30478
#	52853
#	83825
#	98818
#	110495
#	150513
#	181515
#	212428
#	245178
#	275208
#	299790
#	322915
#
# Disc length: 4689 seconds
#
# Revision: 0
# Processed by: cddbd v1.5PL3 Copyright (c) Steve Scherf et al.
# Submitted via: CDex 1.51
#
DISCID=af124f0d
DTITLE=Bill Evans - Complete Fantasy Recordings Disk 2
DYEAR=1
DGENRE=Jazz
TTITLE0=Up With the Lark
TTITLE1=Quiet Now
TTITLE2=Glorias Step
TTITLE3=When in Rome
TTITLE4=It Amazes Me
TTITLE5=Since We Met
TTITLE6=Midnight Mood
TTITLE7=See-Saw
TTITLE8=Elsa
TTITLE9=Sareen Jurer
TTITLE10=Time Remembered
TTITLE11=Turn Out the Stars
TTITLE12=But Beautiful
EXTD=YEAR: 1
EXTT0=
EXTT1=
EXTT2=
EXTT3=
EXTT4=
EXTT5=
EXTT6=
EXTT7=
EXTT8=
EXTT9=
EXTT10=
EXTT11=
EXTT12=
PLAYORDER=
